<?xml version="1.0" standalone="no"?>
<!DOCTYPE svg PUBLIC "-//W3C//DTD SVG 20010904//EN"
 "http://www.w3.org/TR/2001/REC-SVG-20010904/DTD/svg10.dtd">
<svg version="1.0" xmlns="http://www.w3.org/2000/svg"
 width="250.000000pt" height="250.000000pt" viewBox="0 0 250.000000 250.000000"
 preserveAspectRatio="xMidYMid meet">
<metadata>
Created by potrace 1.11, written by Peter Selinger 2001-2013
</metadata>
<g transform="translate(0.000000,250.000000) scale(0.100000,-0.100000)"
fill="#000000" stroke="none">
<path d="M1120 2455 c-8 -2 -49 -9 -90 -15 -236 -39 -461 -174 -580 -350 -94
-139 -129 -264 -124 -439 12 -444 406 -866 932 -1001 115 -29 169 -35 322 -35
175 0 283 18 405 67 251 101 411 269 486 508 33 105 33 299 0 412 -59 206
-188 396 -376 556 -109 93 -379 228 -513 257 -12 3 -32 7 -44 10 -27 6 -74 16
-108 22 -30 5 -289 12 -310 8z m414 -70 c122 -16 278 -75 384 -147 219 -147
353 -372 354 -592 2 -235 -142 -429 -379 -511 -197 -68 -431 -47 -637 56 -105
53 -151 86 -229 162 -82 80 -117 127 -160 213 -92 183 -95 362 -10 526 113
218 379 333 677 293z"/>
<path d="M1380 2285 c-126 -35 -215 -104 -270 -206 -28 -52 -33 -75 -37 -148
-8 -139 40 -254 152 -366 119 -120 270 -186 435 -191 205 -6 359 78 434 236
56 119 37 277 -48 406 -75 113 -196 204 -331 250 -100 34 -250 42 -335 19z"/>
<path d="M324 2084 c-163 -182 -267 -394 -308 -626 -29 -167 -11 -406 44 -577
70 -221 232 -449 419 -590 238 -179 465 -255 766 -256 228 0 380 36 575 136
272 139 501 398 596 672 l14 42 -27 -35 c-42 -55 -164 -171 -231 -219 -144
-105 -359 -192 -537 -217 -71 -10 -291 -12 -339 -3 -23 4 -59 10 -81 13 -71
12 -159 37 -247 72 -169 67 -300 154 -428 284 -170 172 -277 381 -315 610 -15
97 -13 280 5 355 6 28 13 59 16 69 15 74 82 231 128 299 40 58 14 44 -50 -29z"/>
</g>
</svg>
